<svg width="43" height="52" viewBox="0 0 43 52" fill="none" xmlns="http://www.w3.org/2000/svg">
<rect x="0.481445" width="41.7778" height="52" fill="#323238"/>
<path d="M31.942 26.0792C31.942 18.855 27.238 13 21.434 13C15.6299 13 10.9259 18.855 10.9259 26.0792C10.9259 32.6086 14.7679 38.0191 19.7921 39V29.8599H17.124V26.0792H19.7921V23.1977C19.7921 19.9202 21.3601 18.1091 23.7613 18.1091C24.9107 18.1091 26.1133 18.3645 26.1133 18.3645V21.5832H24.7875C23.4822 21.5832 23.0759 22.5923 23.0759 23.6268V26.0792H25.9902L25.5243 29.8599H23.0759V39C28.1 38.0191 31.942 32.6086 31.942 26.0792Z" fill="white"/>
</svg>
