<svg width="43" height="52" viewBox="0 0 43 52" fill="none" xmlns="http://www.w3.org/2000/svg">
<rect x="0.740723" width="41.7778" height="52" fill="#323238"/>
<g clip-path="url(#clip0_61385:216)">
<path d="M20.519 38.9999C19.5555 38.9999 18.4301 38.9934 17.3196 38.9143C15.6946 38.9598 14.1209 38.2058 12.9398 36.8159C11.823 35.3465 11.2171 33.3879 11.2539 31.3656C11.1852 29.8024 11.1852 28.2218 11.1852 26.6932C11.1852 26.4621 11.1852 26.231 11.1852 25.9999C11.1852 25.7688 11.1852 25.5377 11.1852 25.3065C11.1852 23.778 11.1852 22.1974 11.2539 20.6352C11.2174 18.6127 11.8232 16.6539 12.9398 15.1839C14.1209 13.794 15.6946 13.04 17.3196 13.0855C18.4336 13.0064 19.5555 12.9999 20.519 12.9999H22.7411C23.7046 12.9999 24.83 13.0064 25.9414 13.0855C27.5661 13.0397 29.1397 13.7937 30.3203 15.1839C31.4369 16.6539 32.0427 18.6127 32.0062 20.6352C32.0741 22.1974 32.0741 23.778 32.0741 25.3076C32.0741 25.5387 32.0741 25.7698 32.0741 26.001C32.0741 26.2321 32.0741 26.4628 32.0741 26.6932C32.0741 28.2218 32.0741 29.8024 32.0053 31.3667C32.0421 33.389 31.4363 35.3476 30.3194 36.817C29.1389 38.2071 27.5653 38.9612 25.9406 38.9154C24.8256 38.9945 23.7037 39.001 22.7402 39.001L20.519 38.9999Z" fill="white"/>
<path d="M26.509 20.3542C26.7148 20.5254 26.9568 20.6168 27.2044 20.6168L27.2052 20.6179C27.5371 20.6173 27.8552 20.4528 28.0897 20.1605C28.3242 19.8682 28.4559 19.472 28.4559 19.0589C28.4559 18.7508 28.3825 18.4496 28.245 18.1934C28.1075 17.9373 27.912 17.7376 27.6833 17.6197C27.4546 17.5018 27.203 17.4709 26.9602 17.531C26.7174 17.5911 26.4944 17.7395 26.3193 17.9574C26.1443 18.1752 26.0251 18.4528 25.9768 18.755C25.9285 19.0572 25.9533 19.3704 26.048 19.6551C26.1428 19.9397 26.3032 20.183 26.509 20.3542Z" fill="#323238"/>
<path fill-rule="evenodd" clip-rule="evenodd" d="M21.6298 32.6685C20.5702 32.6683 19.5343 32.277 18.6533 31.5441C17.7723 30.8111 17.0857 29.7695 16.6803 28.5509C16.2749 27.3323 16.1689 25.9914 16.3758 24.6978C16.5826 23.4042 17.093 22.216 17.8423 21.2834C18.5917 20.3509 19.5464 19.7158 20.5857 19.4586C21.6251 19.2013 22.7023 19.3335 23.6813 19.8383C24.6603 20.3431 25.4971 21.1978 26.0858 22.2945C26.6745 23.3912 26.9887 24.6806 26.9887 25.9995C26.9873 27.768 26.4223 29.4636 25.4176 30.7141C24.4129 31.9646 23.0507 32.6668 21.6298 32.6685ZM21.6298 21.6667C20.9412 21.6667 20.2681 21.9209 19.6956 22.397C19.1231 22.8732 18.6768 23.55 18.4133 24.3418C18.1498 25.1336 18.0809 26.0049 18.2152 26.8455C18.3495 27.686 18.6811 28.4582 19.168 29.0642C19.6549 29.6702 20.2752 30.0829 20.9506 30.2501C21.6259 30.4173 22.3259 30.3315 22.9621 30.0036C23.5983 29.6756 24.142 29.1202 24.5245 28.4075C24.9071 27.6949 25.1113 26.8571 25.1113 26.0001C25.1113 24.8508 24.7445 23.7486 24.0916 22.9359C23.4387 22.1233 22.5531 21.6667 21.6298 21.6667Z" fill="#323238"/>
</g>
<defs>
<clipPath id="clip0_61385:216">
<rect width="20.8889" height="26" fill="white" transform="translate(11.1852 12.9999)"/>
</clipPath>
</defs>
</svg>
