<svg width="42" height="52" viewBox="0 0 42 52" fill="none" xmlns="http://www.w3.org/2000/svg">
<rect x="0.222168" width="41.7778" height="52" fill="#323238"/>
<g clip-path="url(#clip0_61385:205)">
<path d="M32.1515 18.2492C31.3468 18.6723 30.4938 18.9514 29.6205 19.0774C30.5415 18.4214 31.2307 17.3894 31.5595 16.1737C30.695 16.788 29.748 17.2203 28.7599 17.4517C28.1564 16.6809 27.3716 16.1444 26.5079 15.9122C25.6442 15.6801 24.7417 15.763 23.9182 16.1502C23.0947 16.5373 22.3884 17.2108 21.8915 18.0827C21.3945 18.9546 21.1301 19.9845 21.1325 21.0379C21.1308 21.441 21.169 21.8429 21.2464 22.2354C19.4917 22.132 17.7751 21.5894 16.2087 20.6431C14.6423 19.6968 13.2612 18.3681 12.1558 16.7437C11.5918 17.9001 11.4196 19.2688 11.6743 20.571C11.929 21.8733 12.5914 23.011 13.5266 23.7524C12.8237 23.7317 12.1359 23.5066 11.523 23.0968V23.162C11.5226 24.3745 11.875 25.5499 12.5205 26.4884C13.166 27.4268 14.0647 28.0704 15.0639 28.3099C14.6853 28.432 14.2948 28.4939 13.9026 28.4939C13.6244 28.4946 13.347 28.462 13.0743 28.3968C13.356 29.4397 13.9046 30.3517 14.6436 31.0053C15.3825 31.6588 16.2747 32.0212 17.1953 32.0417C15.6333 33.5024 13.7032 34.2944 11.7164 34.2898C11.3649 34.2893 11.0137 34.2641 10.6647 34.2144C12.6723 35.7685 15.0171 36.5928 17.4123 36.5864C19.0645 36.6002 20.7025 36.2231 22.2312 35.4771C23.7598 34.7311 25.1486 33.6311 26.3167 32.2409C27.4848 30.8508 28.409 29.1983 29.0356 27.3795C29.6621 25.5606 29.9785 23.6118 29.9664 21.6462C29.9664 21.4187 29.9664 21.1912 29.9524 20.9689C30.8154 20.2249 31.56 19.3039 32.1515 18.2492V18.2492Z" fill="white"/>
</g>
<defs>
<clipPath id="clip0_61385:205">
<rect width="21.4857" height="20.8" fill="white" transform="translate(10.6666 15.7854)"/>
</clipPath>
</defs>
</svg>
